# xmcd
#
# Track frame offsets: 
#        182
#        15200
#        29272
#        43450
#        60500
#        78672
#        89975
#        105697
#        118992
#        135912
#
# Disc length: 2007 seconds
#
# Revision: 3
# Processed by: cddbd v1.5.2PL0 Copyright (c) Steve Scherf et al.
# Submitted via: ExactAudioCopy v1.3
#
DISCID=8407d50a
DTITLE=Anne Murray - A Little Good News
DYEAR=1983
DGENRE=Country
TTITLE0=That's Not The Way (It's S'posed To Be)
TTITLE1=I'm Not Afraid Anymore
TTITLE2=A Little Good News
TTITLE3=The More We Try
TTITLE4=Come On Love
TTITLE5=Come To Me
TTITLE6=Sentimental Favorite
TTITLE7=Just Another Woman In Love
TTITLE8=When I Can't Have You
TTITLE9=Heart Stealer
EXTD=YEAR: 1983
EXTT0=
EXTT1=
EXTT2=
EXTT3=
EXTT4=
EXTT5=
EXTT6=
EXTT7=
EXTT8=
EXTT9=
PLAYORDER=
